<svg width="40" height="40" viewBox="0 0 40 40" fill="none" xmlns="http://www.w3.org/2000/svg">
<path d="M32.5 12.1875H29.375C28.512 12.1875 27.8125 12.887 27.8125 13.75C27.8125 14.613 28.512 15.3125 29.375 15.3125H32.5C33.363 15.3125 34.0625 14.613 34.0625 13.75C34.0625 12.887 33.363 12.1875 32.5 12.1875Z" fill="#FFCB00"/>
<path d="M32.1875 5.9375H7.8125C3.50469 5.9375 0 9.44219 0 13.75V26.25C0 30.5578 3.50469 34.0625 7.8125 34.0625H32.1875C36.4954 34.0625 40 30.5578 40 26.25V13.75C40 9.44219 36.4954 5.9375 32.1875 5.9375ZM36.875 26.25C36.875 28.8347 34.7722 30.9375 32.1875 30.9375H7.8125C5.22781 30.9375 3.125 28.8347 3.125 26.25V13.75C3.125 11.1653 5.22781 9.0625 7.8125 9.0625H32.1875C34.7722 9.0625 36.875 11.1653 36.875 13.75V26.25Z" fill="url(#paint0_linear_47_63)"/>
<path d="M17.1875 12.1875C15.9879 12.1875 14.8925 12.641 14.0625 13.3849C13.2325 12.641 12.1371 12.1875 10.9375 12.1875C8.35281 12.1875 6.25 14.2903 6.25 16.875C6.25 19.4597 8.35281 21.5625 10.9375 21.5625H11.7524C11.6093 21.7472 11.4534 21.9373 11.292 22.134C10.4379 23.1751 9.375 24.4707 9.375 26.25C9.375 27.113 10.0745 27.8125 10.9375 27.8125C11.8005 27.8125 12.5 27.113 12.5 26.25C12.5 25.5885 13.0598 24.9062 13.708 24.116C13.8234 23.9754 13.9426 23.8298 14.0625 23.6794C14.1823 23.8299 14.3016 23.9754 14.417 24.116C15.0652 24.9062 15.625 25.5885 15.625 26.25C15.625 27.113 16.3245 27.8125 17.1875 27.8125C18.0505 27.8125 18.75 27.113 18.75 26.25C18.75 24.4707 17.6871 23.1751 16.833 22.134C16.6716 21.9373 16.5157 21.7472 16.3726 21.5625H17.1875C19.7722 21.5625 21.875 19.4597 21.875 16.875C21.875 14.2903 19.7722 12.1875 17.1875 12.1875ZM9.375 16.875C9.375 16.0134 10.0759 15.3125 10.9375 15.3125C11.7991 15.3125 12.5 16.0134 12.5 16.875V18.4375H10.9375C10.0759 18.4375 9.375 17.7366 9.375 16.875ZM17.1875 18.4375H15.625V16.875C15.625 16.0134 16.3259 15.3125 17.1875 15.3125C18.0491 15.3125 18.75 16.0134 18.75 16.875C18.75 17.7366 18.0491 18.4375 17.1875 18.4375Z" fill="url(#paint1_linear_47_63)"/>
<path d="M32.5 18.4375H29.375C28.512 18.4375 27.8125 19.137 27.8125 20C27.8125 20.863 28.512 21.5625 29.375 21.5625H32.5C33.363 21.5625 34.0625 20.863 34.0625 20C34.0625 19.137 33.363 18.4375 32.5 18.4375Z" fill="#FFCB00"/>
<defs>
<linearGradient id="paint0_linear_47_63" x1="-1.44" y1="11.887" x2="19.9551" y2="16.3787" gradientUnits="userSpaceOnUse">
<stop stop-color="#F0F8FB"/>
<stop offset="1" stop-color="#28C6F3"/>
</linearGradient>
<linearGradient id="paint1_linear_47_63" x1="5.6875" y1="15.4928" x2="14.2272" y2="16.7534" gradientUnits="userSpaceOnUse">
<stop stop-color="#F0F8FB"/>
<stop offset="1" stop-color="#28C6F3"/>
</linearGradient>
</defs>
</svg>
