<svg width="22" height="22" viewBox="0 0 22 22" fill="none" xmlns="http://www.w3.org/2000/svg">
<g clip-path="url(#clip0_47_155)">
<path fill-rule="evenodd" clip-rule="evenodd" d="M6.84471 0.977004C7.91996 0.927504 8.26279 0.916504 11.0018 0.916504C13.7408 0.916504 14.0836 0.928421 15.158 0.977004C16.2323 1.02559 16.9656 1.197 17.6073 1.44542C18.2792 1.69934 18.8888 2.09625 19.393 2.60959C19.9063 3.11284 20.3023 3.7215 20.5553 4.39434C20.8046 5.036 20.9751 5.76934 21.0246 6.84184C21.0741 7.91892 21.0851 8.26175 21.0851 10.9998C21.0851 13.7388 21.0732 14.0817 21.0246 15.1569C20.976 16.2294 20.8046 16.9628 20.5553 17.6044C20.3023 18.2773 19.9056 18.887 19.393 19.391C18.8888 19.9043 18.2792 20.3003 17.6073 20.5533C16.9656 20.8027 16.2323 20.9732 15.1598 21.0227C14.0836 21.0722 13.7408 21.0832 11.0018 21.0832C8.26279 21.0832 7.91996 21.0713 6.84471 21.0227C5.77221 20.9741 5.03887 20.8027 4.39721 20.5533C3.7243 20.3003 3.11463 19.9037 2.61062 19.391C2.09764 18.8874 1.70066 18.2781 1.44737 17.6053C1.19896 16.9637 1.02846 16.2303 0.978957 15.1578C0.929457 14.0808 0.918457 13.7379 0.918457 10.9998C0.918457 8.26084 0.930374 7.918 0.978957 6.84367C1.02754 5.76934 1.19896 5.036 1.44737 4.39434C1.70104 3.72158 2.09832 3.11221 2.61154 2.60867C3.11483 2.0958 3.72389 1.69883 4.39629 1.44542C5.03796 1.197 5.77129 1.0265 6.84379 0.977004H6.84471ZM15.0764 2.792C14.013 2.74342 13.694 2.73334 11.0018 2.73334C8.30954 2.73334 7.99054 2.74342 6.92721 2.792C5.94362 2.83692 5.41012 3.001 5.05446 3.13942C4.58421 3.32275 4.24779 3.54 3.89487 3.89292C3.56033 4.21838 3.30287 4.6146 3.14137 5.0525C3.00296 5.40817 2.83887 5.94167 2.79396 6.92525C2.74537 7.98859 2.73529 8.30759 2.73529 10.9998C2.73529 13.6921 2.74537 14.0111 2.79396 15.0744C2.83887 16.058 3.00296 16.5915 3.14137 16.9472C3.30271 17.3844 3.56029 17.7813 3.89487 18.1068C4.22029 18.4413 4.61721 18.6989 5.05446 18.8603C5.41012 18.9987 5.94362 19.1628 6.92721 19.2077C7.99054 19.2563 8.30862 19.2663 11.0018 19.2663C13.695 19.2663 14.013 19.2563 15.0764 19.2077C16.06 19.1628 16.5935 18.9987 16.9491 18.8603C17.4194 18.6769 17.7558 18.4597 18.1087 18.1068C18.4433 17.7813 18.7009 17.3844 18.8622 16.9472C19.0006 16.5915 19.1647 16.058 19.2096 15.0744C19.2582 14.0111 19.2683 13.6921 19.2683 10.9998C19.2683 8.30759 19.2582 7.98859 19.2096 6.92525C19.1647 5.94167 19.0006 5.40817 18.8622 5.0525C18.6789 4.58225 18.4616 4.24584 18.1087 3.89292C17.7832 3.5584 17.387 3.30095 16.9491 3.13942C16.5935 3.001 16.06 2.83692 15.0764 2.792ZM9.71387 14.1083C10.4331 14.4077 11.2341 14.4481 11.9798 14.2226C12.7256 13.9971 13.3699 13.5197 13.8028 12.8719C14.2356 12.2241 14.4302 11.4461 14.3532 10.6708C14.2762 9.89556 13.9324 9.17106 13.3805 8.62109C13.0288 8.26952 12.6034 8.00033 12.1351 7.83289C11.6668 7.66545 11.1672 7.60392 10.6722 7.65273C10.1773 7.70155 9.69935 7.8595 9.27278 8.11521C8.84621 8.37091 8.48164 8.71802 8.20532 9.13153C7.929 9.54505 7.7478 10.0147 7.67476 10.5066C7.60173 10.9986 7.63868 11.5006 7.78295 11.9766C7.92722 12.4525 8.17523 12.8906 8.50912 13.2592C8.843 13.6278 9.25446 13.9178 9.71387 14.1083ZM7.33696 7.335C7.81823 6.85373 8.38958 6.47196 9.0184 6.2115C9.64721 5.95104 10.3212 5.81698 11.0018 5.81698C11.6824 5.81698 12.3564 5.95104 12.9852 6.2115C13.614 6.47196 14.1854 6.85373 14.6666 7.335C15.1479 7.81628 15.5297 8.38763 15.7901 9.01644C16.0506 9.64526 16.1846 10.3192 16.1846 10.9998C16.1846 11.6805 16.0506 12.3544 15.7901 12.9832C15.5297 13.612 15.1479 14.1834 14.6666 14.6647C13.6946 15.6366 12.3764 16.1827 11.0018 16.1827C9.62721 16.1827 8.30893 15.6366 7.33696 14.6647C6.36498 13.6927 5.81893 12.3744 5.81893 10.9998C5.81893 9.62526 6.36498 8.30698 7.33696 7.335ZM17.3341 6.58884C17.4534 6.47633 17.5489 6.34104 17.6149 6.19098C17.6809 6.04092 17.7162 5.87913 17.7186 5.71519C17.721 5.55125 17.6905 5.38851 17.6288 5.23658C17.5672 5.08465 17.4757 4.94664 17.3598 4.83071C17.2438 4.71477 17.1058 4.62328 16.9539 4.56165C16.802 4.50001 16.6392 4.46948 16.4753 4.47187C16.3113 4.47426 16.1495 4.50952 15.9995 4.57556C15.8494 4.6416 15.7141 4.73707 15.6016 4.85634C15.3828 5.08828 15.263 5.39637 15.2677 5.71519C15.2723 6.03401 15.401 6.33848 15.6265 6.56394C15.852 6.78941 16.1564 6.91813 16.4753 6.92278C16.7941 6.92743 17.1022 6.80764 17.3341 6.58884Z" fill="white"/>
</g>
<defs>
<clipPath id="clip0_47_155">
<rect width="22" height="22" fill="white"/>
</clipPath>
</defs>
</svg>
