<svg width="40" height="40" viewBox="0 0 40 40" fill="none" xmlns="http://www.w3.org/2000/svg">
<g clip-path="url(#clip0_47_71)">
<path d="M4.41459 6.74125C3.79803 6.13742 3.78779 5.14812 4.39162 4.53164L7.47451 1.38406C7.47772 1.38078 7.481 1.3775 7.4842 1.37422C8.36764 0.488125 9.54279 0 10.7929 0C12.0429 0 13.2179 0.488125 14.1015 1.3743L17.2394 4.52187C17.8487 5.13305 17.8472 6.12234 17.236 6.73156C16.6251 7.3407 15.6356 7.33938 15.0263 6.7282L11.8883 3.58063C11.5955 3.2868 11.2064 3.125 10.7929 3.125C10.3811 3.125 9.99365 3.28531 9.70115 3.57664L6.62412 6.71836C6.31811 7.03078 5.91303 7.1875 5.50779 7.1875C5.11326 7.1875 4.71858 7.03906 4.41459 6.74125ZM10.6641 6.17188C9.80115 6.17188 9.10162 6.87141 9.10162 7.73438V12.6562C9.10162 13.5192 9.80115 14.2188 10.6641 14.2188C11.5271 14.2188 12.2266 13.5192 12.2266 12.6562V7.73438C12.2266 6.87141 11.5271 6.17188 10.6641 6.17188ZM21.6016 9.375C21.6016 6.30844 25.0333 3.90625 29.4141 3.90625C33.795 3.90625 37.2266 6.30844 37.2266 9.375C37.2266 12.4416 33.795 14.8438 29.4141 14.8438C25.0333 14.8438 21.6016 12.4416 21.6016 9.375ZM24.7266 9.375C24.7266 9.85289 25.1262 10.3767 25.8228 10.8122C26.7447 11.3884 28.0537 11.7188 29.4141 11.7188C30.7746 11.7188 32.0836 11.3884 33.0054 10.8122C33.7021 10.3768 34.1016 9.85297 34.1016 9.375C34.1016 8.89703 33.7021 8.37328 33.0054 7.93781C32.0836 7.36164 30.7746 7.03125 29.4141 7.03125C28.0537 7.03125 26.7447 7.36164 25.8228 7.93781C25.1262 8.37328 24.7266 8.89711 24.7266 9.375ZM34.6694 35.297C31.7783 37.3909 26.8936 37.3909 24.0025 35.297C23.3036 34.7909 22.3267 34.947 21.8204 35.6459C21.3143 36.3448 21.4705 37.3217 22.1694 37.8279C24.1033 39.2286 26.6484 40 29.336 40C32.0236 40 34.5686 39.2286 36.5025 37.828C37.2014 37.3218 37.3576 36.3449 36.8515 35.646C36.3453 34.947 35.3684 34.7908 34.6694 35.297ZM34.6694 29.047C31.7783 31.1409 26.8936 31.1409 24.0025 29.047C23.3036 28.5409 22.3267 28.697 21.8204 29.3959C21.3143 30.0948 21.4705 31.0717 22.1694 31.5779C24.1033 32.9786 26.6484 33.75 29.336 33.75C32.0236 33.75 34.5686 32.9786 36.5025 31.578C37.2014 31.0718 37.3576 30.0949 36.8515 29.396C36.3454 28.6971 35.3684 28.5408 34.6694 29.047ZM34.6694 22.7189C31.7783 24.8128 26.8936 24.8128 24.0025 22.7189C23.3036 22.2127 22.3267 22.3689 21.8204 23.0678C21.3143 23.7667 21.4705 24.7436 22.1694 25.2498C24.1033 26.6505 26.6484 27.4219 29.336 27.4219C32.0236 27.4219 34.5686 26.6505 36.5025 25.2498C37.2014 24.7437 37.3576 23.7668 36.8515 23.0679C36.3454 22.369 35.3684 22.2127 34.6694 22.7189ZM34.6694 16.3908C31.7783 18.4847 26.8936 18.4847 24.0025 16.3908C23.3036 15.8846 22.3267 16.0408 21.8204 16.7397C21.3143 17.4386 21.4705 18.4155 22.1694 18.9216C24.1033 20.3223 26.6484 21.0938 29.336 21.0938C32.0236 21.0938 34.5686 20.3223 36.5025 18.9217C37.2014 18.4155 37.3576 17.4387 36.8515 16.7398C36.3454 16.0409 35.3684 15.8845 34.6694 16.3908ZM18.4766 22.0312C18.4766 25.0978 15.045 27.5 10.6641 27.5C6.28326 27.5 2.85162 25.0978 2.85162 22.0312C2.85162 18.9647 6.28326 16.5625 10.6641 16.5625C15.045 16.5625 18.4766 18.9647 18.4766 22.0312ZM15.3516 22.0312C15.3516 21.5534 14.9521 21.0295 14.2554 20.5941C13.3336 20.0179 12.0246 19.6875 10.6641 19.6875C9.30365 19.6875 7.99467 20.0179 7.07279 20.5941C6.37615 21.0295 5.97662 21.5533 5.97662 22.0312C5.97662 22.5092 6.37615 23.033 7.07279 23.4684C7.99467 24.0446 9.30365 24.375 10.6641 24.375C12.0246 24.375 13.3336 24.0446 14.2554 23.4684C14.952 23.033 15.3516 22.5091 15.3516 22.0312ZM15.9194 35.297C13.0283 37.3909 8.14357 37.3909 5.25248 35.297C4.55365 34.7909 3.57678 34.947 3.07045 35.6459C2.56428 36.3448 2.72053 37.3217 3.41943 37.8279C5.35334 39.2286 7.89842 40 10.586 40C13.2736 40 15.8187 39.2286 17.7525 37.828C18.4514 37.3218 18.6076 36.3449 18.1015 35.646C17.5953 34.947 16.6184 34.7908 15.9194 35.297ZM15.9194 29.047C13.0283 31.1409 8.14357 31.1409 5.25248 29.047C4.55365 28.5409 3.57678 28.697 3.07045 29.3959C2.56428 30.0948 2.72053 31.0717 3.41943 31.5779C5.35334 32.9786 7.89842 33.75 10.586 33.75C13.2736 33.75 15.8187 32.9786 17.7525 31.578C18.4514 31.0718 18.6076 30.0949 18.1015 29.396C17.5954 28.6971 16.6184 28.5408 15.9194 29.047Z" fill="url(#paint0_linear_47_71)"/>
<path d="M16.7266 22.0312C16.7266 22.8536 16.275 23.7362 15.2096 24.4819C14.1407 25.2302 12.5511 25.75 10.6641 25.75C8.77715 25.75 7.18751 25.2302 6.11861 24.4819C5.05325 23.7362 4.60162 22.8536 4.60162 22.0312C4.60162 21.2089 5.05325 20.3263 6.11861 19.5806C7.18751 18.8323 8.77715 18.3125 10.6641 18.3125C12.5511 18.3125 14.1407 18.8323 15.2096 19.5806C16.275 20.3263 16.7266 21.2089 16.7266 22.0312Z" stroke="#FFCB00" stroke-width="3.5"/>
</g>
<defs>
<linearGradient id="paint0_linear_47_71" x1="1.533" y1="8.46154" x2="20.4674" y2="10.8689" gradientUnits="userSpaceOnUse">
<stop stop-color="#F0F8FB"/>
<stop offset="1" stop-color="#28C6F3"/>
</linearGradient>
<clipPath id="clip0_47_71">
<rect width="40" height="40" fill="white"/>
</clipPath>
</defs>
</svg>
