<svg width="40" height="40" viewBox="0 0 40 40" fill="none" xmlns="http://www.w3.org/2000/svg">
<mask id="mask0_47_116" style="mask-type:luminance" maskUnits="userSpaceOnUse" x="0" y="0" width="40" height="40">
<path d="M40 0H0V40H40V0Z" fill="white"/>
<path d="M29.0625 40C29.9255 40 30.625 39.3005 30.625 38.4375C30.625 37.5745 29.9255 36.875 29.0625 36.875C28.1995 36.875 27.5 37.5745 27.5 38.4375C27.5 39.3005 28.1995 40 29.0625 40Z" fill="white"/>
<path d="M4.375 3.125C5.23797 3.125 5.9375 2.42547 5.9375 1.5625C5.9375 0.699532 5.23797 2.38419e-07 4.375 2.38419e-07C3.51203 2.38419e-07 2.8125 0.699532 2.8125 1.5625C2.8125 2.42547 3.51203 3.125 4.375 3.125Z" fill="white"/>
</mask>
<g mask="url(#mask0_47_116)">
<mask id="mask1_47_116" style="mask-type:luminance" maskUnits="userSpaceOnUse" x="0" y="0" width="40" height="40">
<path d="M0 3.8147e-06H40V40H0V3.8147e-06Z" fill="white"/>
</mask>
<g mask="url(#mask1_47_116)">
<path d="M29.0625 40C29.9255 40 30.625 39.3005 30.625 38.4375C30.625 37.5745 29.9255 36.875 29.0625 36.875C28.1995 36.875 27.5 37.5745 27.5 38.4375C27.5 39.3005 28.1995 40 29.0625 40Z" fill="url(#paint0_linear_47_116)"/>
<path d="M4.375 3.125C5.23797 3.125 5.9375 2.42547 5.9375 1.5625C5.9375 0.699532 5.23797 2.38419e-07 4.375 2.38419e-07C3.51203 2.38419e-07 2.8125 0.699532 2.8125 1.5625C2.8125 2.42547 3.51203 3.125 4.375 3.125Z" fill="url(#paint1_linear_47_116)"/>
<path d="M37.2631 19.3166L21.9506 31.8166C21.416 32.2442 20.738 32.5 20 32.5C19.262 32.5 18.584 32.2442 18.0493 31.8166L2.73679 19.3166C2.02101 18.7439 1.5625 17.863 1.5625 16.875C1.5625 16.3734 1.6807 15.8994 1.8907 15.4793L5.0157 9.2293C5.52844 8.20407 6.58812 7.5 7.8125 7.5H32.1875C33.4118 7.5 34.4716 8.20407 34.9842 9.2293L38.1092 15.4793C38.3192 15.8994 38.4375 16.3734 38.4375 16.875C38.4375 17.863 37.979 18.7439 37.2631 19.3166Z" stroke="url(#paint2_linear_47_116)" stroke-width="3" stroke-miterlimit="10" stroke-linecap="round" stroke-linejoin="round"/>
<path d="M20 16.875V26.25" stroke="url(#paint3_linear_47_116)" stroke-width="3" stroke-miterlimit="10" stroke-linecap="round" stroke-linejoin="round"/>
<path d="M10.625 13.75L20 16.875L29.375 13.75" stroke="url(#paint4_linear_47_116)" stroke-width="3" stroke-miterlimit="10" stroke-linecap="round" stroke-linejoin="round"/>
<path d="M35.3125 29.0625V35.3125" stroke="#FFCB00" stroke-width="3" stroke-miterlimit="10" stroke-linecap="round" stroke-linejoin="round"/>
<path d="M32.1875 32.1875H38.4375" stroke="#FFCB00" stroke-width="3" stroke-miterlimit="10" stroke-linecap="round" stroke-linejoin="round"/>
</g>
</g>
<defs>
<linearGradient id="paint0_linear_47_116" x1="27.3875" y1="39.3389" x2="29.0954" y2="39.0868" gradientUnits="userSpaceOnUse">
<stop stop-color="#F0F8FB"/>
<stop offset="1" stop-color="#28C6F3"/>
</linearGradient>
<linearGradient id="paint1_linear_47_116" x1="2.7" y1="2.46394" x2="4.40795" y2="2.21183" gradientUnits="userSpaceOnUse">
<stop stop-color="#F0F8FB"/>
<stop offset="1" stop-color="#28C6F3"/>
</linearGradient>
<linearGradient id="paint2_linear_47_116" x1="0.235" y1="27.2115" x2="19.8959" y2="22.9308" gradientUnits="userSpaceOnUse">
<stop stop-color="#F0F8FB"/>
<stop offset="1" stop-color="#28C6F3"/>
</linearGradient>
<linearGradient id="paint3_linear_47_116" x1="19.964" y1="24.2668" x2="20.5223" y2="24.258" gradientUnits="userSpaceOnUse">
<stop stop-color="#F0F8FB"/>
<stop offset="1" stop-color="#28C6F3"/>
</linearGradient>
<linearGradient id="paint4_linear_47_116" x1="9.95" y1="16.2139" x2="15.818" y2="11.0168" gradientUnits="userSpaceOnUse">
<stop stop-color="#F0F8FB"/>
<stop offset="1" stop-color="#28C6F3"/>
</linearGradient>
</defs>
</svg>
