<svg width="79" height="29" viewBox="0 0 79 29" fill="none" xmlns="http://www.w3.org/2000/svg">
<path d="M5.11343 12.3872C7.23341 12.3872 8.56766 11.4532 8.81969 9.77799H6.78866C6.65523 10.4303 6.16601 10.8602 5.17273 10.8602C4.00155 10.8602 3.30478 10.119 3.24548 8.82919H8.83451V8.23619C8.83451 5.46391 7.05551 4.29273 5.05413 4.29273C2.80073 4.29273 1.0662 5.87901 1.0662 8.32514V8.44374C1.0662 10.9195 2.77108 12.3872 5.11343 12.3872ZM3.27513 7.50976C3.4382 6.41271 4.0905 5.77523 5.05413 5.77523C6.07706 5.77523 6.67006 6.33859 6.74418 7.50976H3.27513ZM13.0732 12.3724C13.6514 12.3724 14.0813 12.2686 14.3778 12.1648V10.5044C14.1258 10.6082 13.8886 10.6527 13.5624 10.6527C13.0139 10.6527 12.7026 10.3562 12.7026 9.73352V5.99761H14.3333V4.47063H12.7026V2.7954H10.5678V4.47063H9.57449V5.99761H10.5678V9.92624C10.5678 11.5422 11.4424 12.3724 13.0732 12.3724ZM15.83 12.2241H17.9796V7.74696C17.9796 6.60544 18.6764 6.04209 19.5955 6.04209C20.5443 6.04209 20.9594 6.54614 20.9594 7.59871V12.2241H23.109V7.28739C23.109 5.21188 22.0268 4.29273 20.4998 4.29273C19.2101 4.29273 18.365 4.93021 17.9796 5.70111V0.957101H15.83V12.2241ZM28.5237 12.3872C30.6436 12.3872 31.9779 11.4532 32.2299 9.77799H30.1989C30.0655 10.4303 29.5762 10.8602 28.583 10.8602C27.4118 10.8602 26.715 10.119 26.6557 8.82919H32.2447V8.23619C32.2447 5.46391 30.4657 4.29273 28.4644 4.29273C26.2109 4.29273 24.4764 5.87901 24.4764 8.32514V8.44374C24.4764 10.9195 26.1813 12.3872 28.5237 12.3872ZM26.6853 7.50976C26.8484 6.41271 27.5007 5.77523 28.4644 5.77523C29.4873 5.77523 30.0803 6.33859 30.1544 7.50976H26.6853ZM33.6518 12.2241H35.8015V8.33996C35.8015 6.85746 36.7206 6.33859 38.3069 6.35341V4.35203C37.0468 4.36686 36.2907 4.91538 35.8015 5.95314V4.47063H33.6518V12.2241ZM43.146 12.3872C45.266 12.3872 46.6002 11.4532 46.8522 9.77799H44.8212C44.6878 10.4303 44.1986 10.8602 43.2053 10.8602C42.0341 10.8602 41.3373 10.119 41.278 8.82919H46.8671V8.23619C46.8671 5.46391 45.0881 4.29273 43.0867 4.29273C40.8333 4.29273 39.0988 5.87901 39.0988 8.32514V8.44374C39.0988 10.9195 40.8036 12.3872 43.146 12.3872ZM41.3077 7.50976C41.4708 6.41271 42.1231 5.77523 43.0867 5.77523C44.1096 5.77523 44.7026 6.33859 44.7767 7.50976H41.3077ZM50.8537 12.3872C52.1287 12.3872 52.9144 11.7942 53.3147 11.0085V12.2241H55.4495V4.47063H53.3147V9.02192C53.3147 10.1634 52.6031 10.7268 51.6988 10.7268C50.7796 10.7268 50.3497 10.2227 50.3497 9.17017V4.47063H48.2149V9.46667C48.2149 11.4977 49.3416 12.3872 50.8537 12.3872ZM57.3516 12.2241H59.5012V7.64319C59.5012 6.59061 60.1684 6.05691 60.9986 6.05691C61.7546 6.05691 62.2142 6.50166 62.2142 7.49494V12.2241H64.349V7.64319C64.349 6.59061 65.0161 6.05691 65.8464 6.05691C66.6173 6.05691 67.062 6.50166 67.062 7.49494V12.2241H69.1968V7.25774C69.1968 5.19706 68.0849 4.29273 66.6469 4.29273C65.6685 4.29273 64.6603 4.70783 64.0377 5.64181C63.6671 4.72266 62.8962 4.29273 61.8732 4.29273C60.7169 4.29273 59.8867 4.93021 59.5012 5.65663V4.47063H57.3516V12.2241ZM1.8964 28.2241H4.0312V21.9976H5.72126V20.4706H4.0312V19.5218C4.0312 18.9288 4.31288 18.4989 4.99483 18.4989C5.30616 18.4989 5.57301 18.5582 5.78056 18.6323V17.0164C5.43958 16.9126 5.12826 16.8682 4.66868 16.8682C2.94898 16.8682 1.8964 17.7725 1.8964 19.5811V20.4706H0.873472V21.9976H1.8964V28.2241ZM10.3698 26.7564C9.15418 26.7564 8.47222 25.8669 8.47222 24.3844V24.2658C8.47222 22.7833 9.18383 21.9235 10.3698 21.9235C11.5707 21.9235 12.2674 22.813 12.2674 24.2955V24.3993C12.2674 25.8669 11.5707 26.7564 10.3698 26.7564ZM10.355 28.3872C12.6825 28.3872 14.4467 26.8306 14.4467 24.3844V24.2658C14.4467 21.8494 12.6974 20.2927 10.3698 20.2927C8.0423 20.2927 6.27812 21.879 6.27812 24.3103V24.4289C6.27812 26.8454 8.0423 28.3872 10.355 28.3872ZM18.4674 28.3872C19.7424 28.3872 20.5281 27.7942 20.9284 27.0085V28.2241H23.0632V20.4706H20.9284V25.0219C20.9284 26.1634 20.2168 26.7268 19.3124 26.7268C18.3933 26.7268 17.9634 26.2227 17.9634 25.1702V20.4706H15.8286V25.4667C15.8286 27.4977 16.9553 28.3872 18.4674 28.3872ZM24.9653 28.2241H27.1149V23.747C27.1149 22.6054 27.8117 22.0421 28.7309 22.0421C29.6797 22.0421 30.0948 22.5461 30.0948 23.5987V28.2241H32.2444V23.2874C32.2444 21.2119 31.1622 20.2927 29.6352 20.2927C28.3454 20.2927 27.5004 20.9302 27.1149 21.7011V20.4706H24.9653V28.2241ZM36.9919 28.3872C38.1334 28.3872 39.0822 27.7201 39.4825 26.9343V28.2241H41.6173V16.9571H39.4825V21.627C39.0525 20.8413 38.2816 20.2927 37.0363 20.2927C35.0943 20.2927 33.6266 21.7901 33.6266 24.34V24.4586C33.6266 27.0381 35.1091 28.3872 36.9919 28.3872ZM37.6293 26.712C36.5619 26.712 35.8207 25.9559 35.8207 24.4141V24.2955C35.8207 22.7537 36.4878 21.9383 37.6886 21.9383C38.8598 21.9383 39.5418 22.724 39.5418 24.2658V24.3844C39.5418 25.9559 38.756 26.712 37.6293 26.712ZM45.6159 28.3872C46.8315 28.3872 47.5135 27.9128 47.9582 27.2901V28.2241H50.0485V23.1688C50.0485 21.0636 48.6995 20.2927 46.8019 20.2927C44.9043 20.2927 43.4514 21.1081 43.318 22.9464H45.349C45.438 22.2793 45.8234 21.8494 46.6684 21.8494C47.6469 21.8494 47.9286 22.3534 47.9286 23.2726V23.5839H47.0539C44.6819 23.5839 43.0215 24.2658 43.0215 26.0745C43.0215 27.7052 44.2075 28.3872 45.6159 28.3872ZM46.2533 26.8899C45.4676 26.8899 45.1266 26.5192 45.1266 25.9559C45.1266 25.1257 45.8531 24.8588 47.0984 24.8588H47.9286V25.5111C47.9286 26.371 47.2021 26.8899 46.2533 26.8899ZM54.7251 28.3724C55.3033 28.3724 55.7332 28.2686 56.0297 28.1648V26.5044C55.7777 26.6082 55.5405 26.6527 55.2144 26.6527C54.6658 26.6527 54.3545 26.3562 54.3545 25.7335V21.9976H55.9853V20.4706H54.3545V18.7954H52.2197V20.4706H51.2264V21.9976H52.2197V25.9262C52.2197 27.5422 53.0944 28.3724 54.7251 28.3724ZM57.5412 28.2241H59.676V20.4706H57.5412V28.2241ZM58.5938 19.4181C59.2906 19.4181 59.8243 18.914 59.8243 18.2469C59.8243 17.5798 59.2906 17.0757 58.5938 17.0757C57.9118 17.0757 57.3781 17.5798 57.3781 18.2469C57.3781 18.914 57.9118 19.4181 58.5938 19.4181ZM65.2688 26.7564C64.0531 26.7564 63.3711 25.8669 63.3711 24.3844V24.2658C63.3711 22.7833 64.0828 21.9235 65.2688 21.9235C66.4696 21.9235 67.1664 22.813 67.1664 24.2955V24.3993C67.1664 25.8669 66.4696 26.7564 65.2688 26.7564ZM65.2539 28.3872C67.5815 28.3872 69.3456 26.8306 69.3456 24.3844V24.2658C69.3456 21.8494 67.5963 20.2927 65.2688 20.2927C62.9412 20.2927 61.177 21.879 61.177 24.3103V24.4289C61.177 26.8454 62.9412 28.3872 65.2539 28.3872ZM70.7868 28.2241H72.9364V23.747C72.9364 22.6054 73.6332 22.0421 74.5523 22.0421C75.5011 22.0421 75.9162 22.5461 75.9162 23.5987V28.2241H78.0659V23.2874C78.0659 21.2119 76.9836 20.2927 75.4567 20.2927C74.1669 20.2927 73.3219 20.9302 72.9364 21.7011V20.4706H70.7868V28.2241Z" fill="black"/>
</svg>
